<?xml version="1.0" encoding="utf-8"?>
<svg viewBox="0 0 500 500" xmlns="http://www.w3.org/2000/svg">
  <g transform="matrix(1, 0, 0, 1, 41.675621, 57.843021)"/>
  <g transform="matrix(1, 0, 0, 1, 41.675621, 57.843021)"/>
  <g transform="matrix(1, 0, 0, 1, 41.675621, 57.843021)"/>
  <g transform="matrix(1, 0, 0, 1, 41.675621, 57.843021)"/>
  <g transform="matrix(1, 0, 0, 1, 41.675621, 57.843021)"/>
  <g transform="matrix(1, 0, 0, 1, 41.675621, 57.843021)"/>
  <g transform="matrix(1, 0, 0, 1, 41.675621, 57.843021)"/>
  <g transform="matrix(1, 0, 0, 1, 41.675621, 57.843021)"/>
  <g transform="matrix(1, 0, 0, 1, 41.675621, 57.843021)"/>
  <g transform="matrix(1, 0, 0, 1, 41.675621, 57.843021)"/>
  <g transform="matrix(1, 0, 0, 1, 41.675621, 57.843021)"/>
  <g transform="matrix(1, 0, 0, 1, 41.675621, 57.843021)"/>
  <g transform="matrix(1, 0, 0, 1, 41.675621, 57.843021)"/>
  <g transform="matrix(1, 0, 0, 1, 41.675621, 57.843021)"/>
  <g transform="matrix(1, 0, 0, 1, 41.675621, 57.843021)"/>
  <g transform="matrix(1, 0, 0, 1, 2.135355, 1.536275)"/>
  <g transform="matrix(1, 0, 0, 1, 2.135355, 1.536275)"/>
  <g transform="matrix(1, 0, 0, 1, 2.135355, 1.536275)"/>
  <g transform="matrix(1, 0, 0, 1, 2.135355, 1.536275)"/>
  <g transform="matrix(1, 0, 0, 1, 2.135355, 1.536275)"/>
  <g transform="matrix(1, 0, 0, 1, 2.135355, 1.536275)"/>
  <g transform="matrix(1, 0, 0, 1, 2.135355, 1.536275)"/>
  <g transform="matrix(1, 0, 0, 1, 2.135355, 1.536275)"/>
  <g transform="matrix(1, 0, 0, 1, 2.135355, 1.536275)"/>
  <g transform="matrix(1, 0, 0, 1, 2.135355, 1.536275)"/>
  <g transform="matrix(1, 0, 0, 1, 2.135355, 1.536275)"/>
  <g transform="matrix(1, 0, 0, 1, 2.135355, 1.536275)"/>
  <g transform="matrix(1, 0, 0, 1, 2.135355, 1.536275)"/>
  <g transform="matrix(1, 0, 0, 1, 2.135355, 1.536275)"/>
  <g transform="matrix(1, 0, 0, 1, 2.135355, 1.536275)"/>
  <path fill-rule="evenodd" d="M 26.951 31.22 C 37.244 20.938 53.92 20.938 64.213 31.22 L 247.718 214.724 L 431.222 31.22 C 445.059 16.371 469.78 22.067 475.723 41.475 C 478.675 51.121 475.865 61.605 468.486 68.482 L 284.982 251.987 L 468.486 435.491 C 483.335 449.328 477.637 474.049 458.229 479.992 C 448.584 482.944 438.099 480.134 431.222 472.755 L 247.718 289.251 L 64.213 472.755 C 49.364 486.591 25.105 479.165 20.548 459.386 C 18.58 450.852 20.979 441.899 26.951 435.491 L 210.455 251.987 L 26.951 68.482 C 16.669 58.189 16.669 41.513 26.951 31.22 Z" style="fill: rgb(154, 6, 6);"/>
</svg>